<mxfile host="app.diagrams.net" modified="2021-06-09T09:32:42.184Z" agent="5.0 (Windows NT 10.0; Win64; x64) AppleWebKit/537.36 (KHTML, like Gecko) Chrome/90.0.4430.72 Safari/537.36" etag="4Q-0uwO9FiiO_lGwpF1P" version="14.6.13" type="github">
  <diagram id="LjrCR2icNRhnQb-nepyd" name="第 1 页">
    <mxGraphModel dx="-492" dy="-464" grid="1" gridSize="10" guides="1" tooltips="1" connect="1" arrows="1" fold="1" page="1" pageScale="1" pageWidth="1169" pageHeight="827" math="0" shadow="0">
      <root>
        <mxCell id="0" />
        <mxCell id="1" parent="0" />
        <mxCell id="brSOfn_hg27Ukbo5iZHU-1" value="AstNodeStmt" style="swimlane;fontStyle=1;align=center;verticalAlign=top;childLayout=stackLayout;horizontal=1;startSize=26;horizontalStack=0;resizeParent=1;resizeParentMax=0;resizeLast=0;collapsible=1;marginBottom=0;" vertex="1" parent="1">
          <mxGeometry x="1250" y="870" width="360" height="122" as="geometry" />
        </mxCell>
        <mxCell id="brSOfn_hg27Ukbo5iZHU-3" value="" style="line;strokeWidth=1;fillColor=none;align=left;verticalAlign=middle;spacingTop=-1;spacingLeft=3;spacingRight=3;rotatable=0;labelPosition=right;points=[];portConstraint=eastwest;" vertex="1" parent="brSOfn_hg27Ukbo5iZHU-1">
          <mxGeometry y="26" width="360" height="8" as="geometry" />
        </mxCell>
        <mxCell id="brSOfn_hg27Ukbo5iZHU-4" value="+ isStatement(): bool&#xa;  真语句，不是带return的函数" style="text;strokeColor=none;fillColor=none;align=left;verticalAlign=top;spacingLeft=4;spacingRight=4;overflow=hidden;rotatable=0;points=[[0,0.5],[1,0.5]];portConstraint=eastwest;" vertex="1" parent="brSOfn_hg27Ukbo5iZHU-1">
          <mxGeometry y="34" width="360" height="36" as="geometry" />
        </mxCell>
        <mxCell id="brSOfn_hg27Ukbo5iZHU-16" value="+ addNextStmt(AstNode* newp, AstNode* belowp): virtual void" style="text;strokeColor=none;fillColor=none;align=left;verticalAlign=top;spacingLeft=4;spacingRight=4;overflow=hidden;rotatable=0;points=[[0,0.5],[1,0.5]];portConstraint=eastwest;" vertex="1" parent="brSOfn_hg27Ukbo5iZHU-1">
          <mxGeometry y="70" width="360" height="26" as="geometry" />
        </mxCell>
        <mxCell id="brSOfn_hg27Ukbo5iZHU-17" value="+ addBeforeStmt(AstNode* newp, AstNode* belowp): virtual void" style="text;strokeColor=none;fillColor=none;align=left;verticalAlign=top;spacingLeft=4;spacingRight=4;overflow=hidden;rotatable=0;points=[[0,0.5],[1,0.5]];portConstraint=eastwest;" vertex="1" parent="brSOfn_hg27Ukbo5iZHU-1">
          <mxGeometry y="96" width="360" height="26" as="geometry" />
        </mxCell>
        <mxCell id="brSOfn_hg27Ukbo5iZHU-5" value="AstNodeAssign" style="swimlane;fontStyle=1;align=center;verticalAlign=top;childLayout=stackLayout;horizontal=1;startSize=26;horizontalStack=0;resizeParent=1;resizeParentMax=0;resizeLast=0;collapsible=1;marginBottom=0;" vertex="1" parent="1">
          <mxGeometry x="1315" y="1210" width="180" height="86" as="geometry" />
        </mxCell>
        <mxCell id="brSOfn_hg27Ukbo5iZHU-6" value="- " style="text;strokeColor=none;fillColor=none;align=left;verticalAlign=top;spacingLeft=4;spacingRight=4;overflow=hidden;rotatable=0;points=[[0,0.5],[1,0.5]];portConstraint=eastwest;" vertex="1" parent="brSOfn_hg27Ukbo5iZHU-5">
          <mxGeometry y="26" width="180" height="26" as="geometry" />
        </mxCell>
        <mxCell id="brSOfn_hg27Ukbo5iZHU-7" value="" style="line;strokeWidth=1;fillColor=none;align=left;verticalAlign=middle;spacingTop=-1;spacingLeft=3;spacingRight=3;rotatable=0;labelPosition=right;points=[];portConstraint=eastwest;" vertex="1" parent="brSOfn_hg27Ukbo5iZHU-5">
          <mxGeometry y="52" width="180" height="8" as="geometry" />
        </mxCell>
        <mxCell id="brSOfn_hg27Ukbo5iZHU-8" value="+ " style="text;strokeColor=none;fillColor=none;align=left;verticalAlign=top;spacingLeft=4;spacingRight=4;overflow=hidden;rotatable=0;points=[[0,0.5],[1,0.5]];portConstraint=eastwest;" vertex="1" parent="brSOfn_hg27Ukbo5iZHU-5">
          <mxGeometry y="60" width="180" height="26" as="geometry" />
        </mxCell>
        <mxCell id="brSOfn_hg27Ukbo5iZHU-9" value="Extends" style="endArrow=block;endSize=16;endFill=0;html=1;edgeStyle=orthogonalEdgeStyle;" edge="1" parent="1" source="brSOfn_hg27Ukbo5iZHU-5" target="brSOfn_hg27Ukbo5iZHU-1">
          <mxGeometry width="160" relative="1" as="geometry">
            <mxPoint x="945" y="1180" as="sourcePoint" />
            <mxPoint x="2080" y="665.9999999999998" as="targetPoint" />
          </mxGeometry>
        </mxCell>
        <mxCell id="brSOfn_hg27Ukbo5iZHU-10" value="AstAssign (final)" style="swimlane;fontStyle=1;align=center;verticalAlign=top;childLayout=stackLayout;horizontal=1;startSize=26;horizontalStack=0;resizeParent=1;resizeParentMax=0;resizeLast=0;collapsible=1;marginBottom=0;" vertex="1" parent="1">
          <mxGeometry x="1315" y="1370" width="180" height="112" as="geometry" />
        </mxCell>
        <mxCell id="brSOfn_hg27Ukbo5iZHU-11" value="- " style="text;strokeColor=none;fillColor=none;align=left;verticalAlign=top;spacingLeft=4;spacingRight=4;overflow=hidden;rotatable=0;points=[[0,0.5],[1,0.5]];portConstraint=eastwest;" vertex="1" parent="brSOfn_hg27Ukbo5iZHU-10">
          <mxGeometry y="26" width="180" height="26" as="geometry" />
        </mxCell>
        <mxCell id="brSOfn_hg27Ukbo5iZHU-12" value="" style="line;strokeWidth=1;fillColor=none;align=left;verticalAlign=middle;spacingTop=-1;spacingLeft=3;spacingRight=3;rotatable=0;labelPosition=right;points=[];portConstraint=eastwest;" vertex="1" parent="brSOfn_hg27Ukbo5iZHU-10">
          <mxGeometry y="52" width="180" height="8" as="geometry" />
        </mxCell>
        <mxCell id="brSOfn_hg27Ukbo5iZHU-13" value="+ accept(AstNVisitor &amp;): void" style="text;strokeColor=none;fillColor=none;align=left;verticalAlign=top;spacingLeft=4;spacingRight=4;overflow=hidden;rotatable=0;points=[[0,0.5],[1,0.5]];portConstraint=eastwest;" vertex="1" parent="brSOfn_hg27Ukbo5iZHU-10">
          <mxGeometry y="60" width="180" height="26" as="geometry" />
        </mxCell>
        <mxCell id="brSOfn_hg27Ukbo5iZHU-14" value="+ " style="text;strokeColor=none;fillColor=none;align=left;verticalAlign=top;spacingLeft=4;spacingRight=4;overflow=hidden;rotatable=0;points=[[0,0.5],[1,0.5]];portConstraint=eastwest;" vertex="1" parent="brSOfn_hg27Ukbo5iZHU-10">
          <mxGeometry y="86" width="180" height="26" as="geometry" />
        </mxCell>
        <mxCell id="brSOfn_hg27Ukbo5iZHU-15" value="Extends" style="endArrow=block;endSize=16;endFill=0;html=1;edgeStyle=orthogonalEdgeStyle;exitX=0.5;exitY=0;exitDx=0;exitDy=0;" edge="1" parent="1" source="brSOfn_hg27Ukbo5iZHU-10" target="brSOfn_hg27Ukbo5iZHU-5">
          <mxGeometry width="160" relative="1" as="geometry">
            <mxPoint x="1415.000000000001" y="1220" as="sourcePoint" />
            <mxPoint x="1160" y="1250" as="targetPoint" />
          </mxGeometry>
        </mxCell>
      </root>
    </mxGraphModel>
  </diagram>
</mxfile>
